<svg width="94.339844" height="33.997070" viewBox="0 0 94.3398 33.9971" fill="none" xmlns="http://www.w3.org/2000/svg" xmlns:xlink="http://www.w3.org/1999/xlink">
	<desc>
			Created with Pixso.
	</desc>
	<defs/>
	<path id="Vector" d="M94.33 19.86C94.32 19.72 94.29 19.59 94.24 19.47C93.92 18.65 92.49 19.41 92 19.62C91.12 19.98 90.12 20.47 89.14 20.19C88.87 20.12 88.95 19.89 89.14 19.77C89.24 19.71 91.74 18.29 92.47 15.16C93.65 10.14 90.04 8.75 88.61 8.58C87.16 8.41 85.54 8.63 84.86 8.9C82.93 9.68 82.43 11.4 82.29 12.44C82.11 13.86 82.09 16.34 81.91 17.45C81.8 18.19 81.25 19.31 80.17 19.2C78.09 19 77.14 18.2 77.2 16.89C77.25 15.97 77.24 15.78 77.53 13.74C77.78 11.99 77.93 11.57 77.93 11.17C77.93 10.02 76.39 9.79 75.88 10.31C75.48 10.71 75.38 11.52 75.28 12.89C75.19 14.18 74.99 15.86 74.73 16.89C74.34 18.48 74.18 18.6 73.81 19.06C73.06 20 71.67 19.71 70.99 19.06C70.59 18.68 70.53 18.35 70.61 17.23C70.69 16.11 70.87 14.16 71.13 12.13C71.35 10.36 71.2 10.09 70.65 9.59C70.14 9.13 68.2 9.2 67.3 9.2C65.91 9.2 65.99 9.86 65.9 12.12C65.86 13.11 65.81 14.6 65.71 15.76C65.55 17.65 61.95 19.07 60.3 18.99C58.58 18.9 58.42 15.69 58.31 14.95C58.2 14.2 58.16 7.77 58.34 7.56C58.47 7.4 59.5 7.29 60.68 7.06C63.29 6.55 63.66 6.21 63.67 5.39C63.67 4.99 63.64 4.43 63.2 4.28C62.94 4.2 62.26 4.09 61.37 3.99C58.79 3.69 58.42 3.78 58.41 3.45C58.39 2.88 58.44 1.78 58.39 1.34C58.28 0.27 57.03 -0.08 55.62 0.01C55.34 0.03 54.96 0.12 54.93 0.49C54.9 0.86 54.9 1.15 54.86 1.78C54.76 3.18 54.73 3.34 54.18 3.33C53.7 3.33 49.67 2.98 48.89 3.22C48.12 3.47 48.15 4 48.09 4.26C48.03 4.53 48.16 6.11 48.24 6.79C48.32 7.48 48.47 8.41 48.56 8.54C48.66 8.69 48.95 9.08 49.76 8.98C52.5 8.64 54.34 8.22 54.71 8.13C55.08 8.03 55.12 7.99 55.13 8.28C55.13 8.45 55.2 11.81 55.21 12.8C55.23 14.51 55.52 19.45 50.92 20.21C49.01 20.53 47.22 19.98 46.41 19.08C45.94 18.57 46.17 18.5 46.38 18.17C46.68 17.66 49.27 14.63 47.1 11.49C45.83 9.63 42.77 9.48 41.66 9.96C40.8 10.34 40.1 11.49 39.97 12.9C39.55 17.26 42.04 19.95 42.14 20.11C42.25 20.31 41.82 20.95 40.3 21.18C38.26 21.48 35.12 19.01 35.21 18.69C35.25 18.54 36.63 16.27 36.67 14.07C36.68 13.33 36.43 12.34 35.92 11.35C35.41 10.36 33.8 8.82 32.06 9.16C27.96 9.95 28.42 14 28.71 15.11C29.3 17.39 30.68 19.41 30.9 19.81C31.21 20.36 22.23 23.93 21.88 20.59C21.54 17.28 26.45 10.15 26.06 7.38C25.71 4.89 24.04 4.37 22.58 4.34C21.16 4.32 20.79 4.54 20.31 4.82C20.03 4.98 19.63 5.3 19.08 4.78C18.72 4.43 18.47 4.18 18.09 3.87C17.89 3.71 17.58 3.51 17.05 3.44C16.52 3.36 15.84 3.44 15.41 3.62C14.97 3.81 14.63 4.13 14.28 4.45C13.92 4.76 13.02 5.77 12.17 5.4C11.81 5.23 10.57 4.61 9.68 4.23C7.95 3.48 5.47 4.69 4.57 6.29C3.24 8.66 0.61 17.98 0.21 19.21C-0.68 21.97 1.34 24.22 4.07 24.09C5.23 24.04 6 23.61 6.72 22.29C7.15 21.52 11.11 11.15 11.4 10.66C11.62 10.29 12.33 9.82 12.93 10.13C13.54 10.44 13.66 11.09 13.57 11.7C13.42 12.68 10.63 19.01 10.52 19.72C10.34 20.94 10.92 21.62 12.18 21.68C13.04 21.73 13.9 21.42 14.58 20.12C14.97 19.4 19.37 10.56 19.76 9.97C20.19 9.33 20.53 9.11 20.97 9.14C21.31 9.15 21.85 9.24 21.71 10.26C21.58 11.25 18.04 17.74 17.67 19.33C17.1 21.74 18.65 24.98 22.78 25.12C24.83 25.2 29.58 24.3 32.25 22.27C33.22 21.53 32.97 21.47 33.57 22.01C34.44 22.78 36.06 23.87 37.65 23.87C41.27 23.87 43.91 21.61 44.03 21.53C44.04 21.51 44.07 21.51 44.09 21.51C44.11 21.51 44.13 21.52 44.15 21.54C44.37 21.78 46.61 23.03 48.18 23.08C51.92 23.2 54.13 21.12 54.97 20.15C55.43 19.61 55.86 19.04 56.25 18.46C56.27 18.44 56.28 18.43 56.3 18.42C56.32 18.41 56.34 18.4 56.36 18.4C56.38 18.4 56.4 18.4 56.41 18.41C56.43 18.42 56.45 18.43 56.46 18.44C56.69 18.69 58.37 21.79 61.72 21.37C63.59 21.13 66.37 19.55 66.56 19.33C66.57 19.32 66.59 19.31 66.6 19.31C66.62 19.3 66.63 19.3 66.65 19.31C66.66 19.31 66.67 19.32 66.68 19.33C66.7 19.34 66.7 19.35 66.71 19.36C66.81 19.63 67.23 21.16 68.95 22.37C70.35 23.36 73.05 23.56 74.25 22.9C75.25 22.35 75.65 22 76.34 21.31C76.64 21.01 77.1 20.7 77.92 20.88C78.83 21.07 81.26 21.5 81.42 21.58C81.59 21.66 81.62 21.97 81.57 22.31C81.48 22.83 81.29 24.66 81.08 26.36C80.88 28.07 80.24 33.77 81.76 33.98C82.69 34.11 83.49 33.23 83.7 32.38C84.23 30.24 84.32 27.83 84.67 25.77C85.09 23.31 85.25 22.62 85.4 22.35C85.53 22.12 85.53 22.17 87.25 22.32C88.43 22.42 89.4 22.59 90.83 22.38C92.02 22.22 94.46 21.32 94.33 19.86ZM34.92 14.33C34.87 15.13 34.66 15.64 34.23 16.38C33.97 16.85 33.69 16.5 33.53 16.27C33.3 15.95 32.13 13.09 33.03 12.5C33.28 12.34 33.78 12.24 34.14 12.44C34.5 12.65 34.72 12.94 34.82 13.27C34.92 13.6 34.96 13.79 34.92 14.33ZM46.05 14.74C45.95 15.67 45.55 16.2 45.41 16.39C45.15 16.73 45.05 16.87 44.81 16.62C44.61 16.42 43.86 14.9 43.76 13.9C43.7 13.37 43.85 12.6 44.3 12.42C44.77 12.23 45.25 12.31 45.59 12.76C46.12 13.45 46.13 14.08 46.05 14.74ZM86.43 18.8C85.87 19.03 85.63 18.89 85.66 17.97C85.67 17.77 86.57 13.14 88.28 12.3C88.77 12.06 89.26 12.07 89.6 12.45C90.25 13.17 90.08 14.28 89.59 15.29C88.89 16.76 87.2 18.49 86.43 18.8Z" fill="#F64060" fill-opacity="1.000000" fill-rule="evenodd"/>
</svg>
