<svg width="25.000000" height="25.000000" viewBox="0 0 25 25" fill="none" xmlns="http://www.w3.org/2000/svg" xmlns:xlink="http://www.w3.org/1999/xlink">
	<desc>
			Created with Pixso.
	</desc>
	<defs/>
	<path id="Vector" d="M25 12.57C25 5.63 19.4 0 12.5 0C5.59 0 0 5.63 0 12.57C0 18.85 4.57 24.05 10.54 25L10.54 16.21L7.37 16.21L7.37 12.57L10.54 12.57L10.54 9.8C10.54 6.65 12.41 4.91 15.26 4.91C16.63 4.91 18.06 5.15 18.06 5.15L18.06 8.25L16.49 8.25C14.93 8.25 14.45 9.22 14.45 10.21L14.45 12.57L17.91 12.57L17.36 16.21L14.45 16.21L14.45 25C20.42 24.05 25 18.85 25 12.57Z" fill="#D9D9D9" fill-opacity="1.000000" fill-rule="evenodd"/>
</svg>
