<svg width="22.500000" height="22.500000" viewBox="0 0 22.5 22.5" fill="none" xmlns="http://www.w3.org/2000/svg" xmlns:xlink="http://www.w3.org/1999/xlink">
	<desc>
			Created with Pixso.
	</desc>
	<defs/>
	<path id="Vector" d="M20.4 15.79C20.35 16.89 20.17 17.48 20.02 17.88C19.81 18.4 19.57 18.78 19.17 19.17C18.78 19.57 18.4 19.81 17.88 20.01C17.48 20.17 16.88 20.35 15.79 20.4C14.6 20.46 14.25 20.47 11.24 20.47C8.24 20.47 7.88 20.46 6.7 20.4C5.6 20.35 5.01 20.17 4.61 20.01C4.08 19.81 3.71 19.57 3.32 19.17C2.92 18.78 2.68 18.4 2.47 17.88C2.32 17.48 2.14 16.89 2.09 15.79C2.03 14.6 2.02 14.25 2.02 11.25C2.02 8.24 2.03 7.88 2.09 6.7C2.14 5.6 2.32 5.01 2.47 4.61C2.68 4.08 2.92 3.71 3.32 3.32C3.71 2.92 4.08 2.68 4.61 2.47C5.01 2.32 5.6 2.14 6.7 2.09C7.88 2.03 8.24 2.02 11.24 2.02C14.25 2.02 14.6 2.03 15.79 2.09C16.88 2.14 17.48 2.32 17.88 2.47C18.4 2.68 18.78 2.92 19.17 3.32C19.57 3.71 19.81 4.08 20.02 4.61C20.17 5.01 20.35 5.6 20.4 6.7C20.46 7.88 20.47 8.24 20.47 11.25C20.47 14.25 20.46 14.6 20.4 15.79ZM22.43 6.61C22.37 5.41 22.18 4.59 21.9 3.88C21.62 3.14 21.23 2.51 20.61 1.88C19.98 1.26 19.35 0.87 18.61 0.58C17.9 0.31 17.08 0.12 15.88 0.06C14.68 0.01 14.3 0 11.24 0C8.19 0 7.8 0.01 6.6 0.06C5.41 0.12 4.59 0.31 3.87 0.58C3.14 0.87 2.51 1.26 1.88 1.88C1.26 2.51 0.87 3.14 0.59 3.88C0.31 4.59 0.12 5.41 0.06 6.61C0.01 7.81 0 8.19 0 11.25C0 14.3 0.01 14.68 0.06 15.88C0.12 17.08 0.31 17.9 0.59 18.61C0.87 19.35 1.26 19.98 1.88 20.61C2.51 21.23 3.14 21.62 3.87 21.9C4.59 22.18 5.41 22.37 6.6 22.43C7.8 22.48 8.19 22.5 11.24 22.5C14.3 22.5 14.68 22.48 15.88 22.43C17.08 22.37 17.9 22.18 18.61 21.9C19.35 21.62 19.98 21.23 20.61 20.61C21.23 19.98 21.62 19.35 21.9 18.61C22.18 17.9 22.37 17.08 22.43 15.88C22.48 14.68 22.5 14.3 22.5 11.25C22.5 8.19 22.48 7.81 22.43 6.61ZM18.6 5.24C18.6 4.49 18 3.89 17.25 3.89C16.5 3.89 15.9 4.49 15.9 5.24C15.9 5.99 16.5 6.59 17.25 6.59C18 6.59 18.6 5.99 18.6 5.24ZM7.49 11.25C7.49 13.32 9.17 14.99 11.24 14.99C13.31 14.99 15 13.32 15 11.25C15 9.17 13.31 7.49 11.24 7.49C9.17 7.49 7.49 9.17 7.49 11.25ZM5.47 11.25C5.47 8.06 8.05 5.47 11.24 5.47C14.43 5.47 17.02 8.06 17.02 11.25C17.02 14.43 14.43 17.02 11.24 17.02C8.05 17.02 5.47 14.43 5.47 11.25Z" fill="#D9D9D9" fill-opacity="1.000000" fill-rule="evenodd"/>
</svg>
