<svg width="14.171875" height="16.250000" viewBox="0 0 14.1719 16.25" fill="none" xmlns="http://www.w3.org/2000/svg" xmlns:xlink="http://www.w3.org/1999/xlink">
	<desc>
			Created with Pixso.
	</desc>
	<defs/>
	<path id="Vector" d="M12.05 3.25C11.17 2.68 10.54 1.77 10.35 0.71C10.3 0.47 10.28 0.24 10.28 0L7.48 0L7.48 11.19C7.43 12.45 6.4 13.45 5.13 13.45C4.74 13.45 4.37 13.36 4.05 13.18C3.3 12.79 2.79 12.01 2.79 11.11C2.79 9.81 3.84 8.76 5.14 8.76C5.38 8.76 5.61 8.8 5.83 8.87L5.83 6.67L5.83 6.01C5.6 5.98 5.37 5.96 5.14 5.96C2.3 5.96 0 8.27 0 11.1C0 12.84 0.86 14.38 2.19 15.31C3.03 15.9 4.04 16.25 5.14 16.25C7.97 16.25 10.28 13.94 10.28 11.1L10.28 5.42C11.37 6.21 12.72 6.67 14.17 6.67L14.17 4.5L14.17 3.88C13.38 3.88 12.66 3.65 12.05 3.25Z" fill="#D9D9D9" fill-opacity="1.000000" fill-rule="nonzero"/>
</svg>
