<svg width="25.000000" height="20.317383" viewBox="0 0 25 20.3174" fill="none" xmlns="http://www.w3.org/2000/svg" xmlns:xlink="http://www.w3.org/1999/xlink">
	<desc>
			Created with Pixso.
	</desc>
	<defs/>
	<path id="Vector" d="M25 2.4C24.08 2.81 23.09 3.08 22.05 3.21C23.11 2.57 23.92 1.57 24.3 0.37C23.31 0.96 22.22 1.38 21.05 1.62C20.11 0.62 18.78 0 17.3 0C14.47 0 12.17 2.29 12.17 5.12C12.17 5.53 12.22 5.92 12.31 6.29C8.04 6.08 4.27 4.04 1.74 0.93C1.29 1.69 1.04 2.57 1.04 3.51C1.04 5.29 1.95 6.86 3.32 7.78C2.48 7.75 1.69 7.52 1 7.14C1 7.16 1 7.18 1 7.2C1 9.69 2.77 11.76 5.11 12.23C4.68 12.35 4.23 12.41 3.76 12.41C3.43 12.41 3.11 12.38 2.8 12.32C3.45 14.36 5.34 15.84 7.59 15.88C5.83 17.26 3.62 18.08 1.22 18.08C0.8 18.08 0.4 18.05 0 18.01C2.26 19.46 4.96 20.31 7.86 20.31C17.29 20.31 22.45 12.5 22.45 5.72C22.45 5.5 22.45 5.28 22.44 5.06C23.44 4.33 24.31 3.43 25 2.4Z" fill="#D9D9D9" fill-opacity="1.000000" fill-rule="nonzero"/>
</svg>
