<svg width="140.000000" height="40.000000" viewBox="0 0 140 40" fill="none" xmlns="http://www.w3.org/2000/svg" xmlns:xlink="http://www.w3.org/1999/xlink">
	<desc>
			Created with Pixso.
	</desc>
	<defs>
		<clipPath id="clip4_7346">
			<rect id="download_en-US.svg" rx="0.000000" width="118.664070" height="39.000000" transform="translate(10.667969 0.500000)" fill="white" fill-opacity="0"/>
		</clipPath>
		<clipPath id="clip4_7345">
			<rect id="download_en-US.svg fill" rx="0.000000" width="139.000000" height="39.000000" transform="translate(0.500000 0.500000)" fill="white" fill-opacity="0"/>
		</clipPath>
		<clipPath id="clip4_7344">
			<rect id="Link - Download app from App Store → download_en-US.svg" rx="0.000000" width="139.000000" height="39.000000" transform="translate(0.500000 0.500000)" fill="white" fill-opacity="0"/>
		</clipPath>
	</defs>
	<g clip-path="url(#clip4_7344)">
		<g clip-path="url(#clip4_7345)">
			<g clip-path="url(#clip4_7346)">
				<path id="Vector" d="M120.3 0L19.7 0C19.33 0 18.97 0 18.6 0C18.3 0 17.99 0 17.68 0.01C17.01 0.02 16.34 0.08 15.68 0.19C15.02 0.3 14.38 0.51 13.78 0.81C13.18 1.12 12.64 1.52 12.16 1.99C11.68 2.47 11.29 3.01 10.98 3.61C10.68 4.21 10.47 4.85 10.36 5.52C10.25 6.18 10.19 6.85 10.18 7.52C10.17 7.83 10.17 8.13 10.16 8.44L10.16 31.55C10.17 31.86 10.17 32.16 10.18 32.48C10.19 33.15 10.25 33.82 10.36 34.48C10.47 35.14 10.68 35.78 10.98 36.38C11.29 36.98 11.68 37.53 12.16 38C12.63 38.47 13.18 38.87 13.78 39.17C14.38 39.48 15.02 39.69 15.68 39.81C16.34 39.91 17.01 39.97 17.68 39.98C17.99 39.99 18.3 39.99 18.6 39.99C18.97 40 19.33 40 19.7 40L120.3 40C120.66 40 121.02 40 121.38 39.99C121.69 39.99 122 39.99 122.3 39.98C122.97 39.97 123.64 39.91 124.3 39.81C124.97 39.69 125.61 39.48 126.21 39.17C126.81 38.87 127.36 38.47 127.83 38C128.31 37.52 128.7 36.98 129.01 36.38C129.31 35.78 129.52 35.14 129.63 34.48C129.74 33.82 129.8 33.15 129.82 32.48C129.82 32.16 129.82 31.86 129.82 31.55C129.83 31.19 129.83 30.83 129.83 30.46L129.83 9.53C129.83 9.16 129.83 8.8 129.82 8.44C129.82 8.13 129.82 7.83 129.82 7.52C129.8 6.85 129.74 6.18 129.63 5.52C129.52 4.85 129.31 4.21 129.01 3.61C128.39 2.41 127.42 1.43 126.21 0.81C125.61 0.51 124.97 0.3 124.3 0.19C123.64 0.08 122.97 0.02 122.3 0.01C122 0 121.69 0 121.38 0C121.02 0 120.66 0 120.3 0Z" fill="#A6A6A6" fill-opacity="1.000000" fill-rule="nonzero"/>
				<path id="Vector" d="M18.61 39.12C18.3 39.12 18.01 39.12 17.7 39.11C17.08 39.1 16.45 39.05 15.83 38.95C15.26 38.85 14.7 38.66 14.18 38.4C13.66 38.14 13.19 37.79 12.78 37.38C12.37 36.97 12.02 36.5 11.76 35.99C11.5 35.46 11.31 34.91 11.22 34.33C11.11 33.71 11.06 33.08 11.05 32.45C11.04 32.24 11.04 31.54 11.04 31.54L11.04 8.44C11.04 8.44 11.04 7.75 11.05 7.54C11.06 6.92 11.11 6.29 11.22 5.67C11.31 5.09 11.5 4.53 11.76 4.01C12.02 3.49 12.36 3.02 12.78 2.61C13.19 2.2 13.66 1.86 14.18 1.59C14.7 1.33 15.25 1.14 15.83 1.05C16.45 0.95 17.08 0.89 17.71 0.88L18.61 0.87L121.38 0.87L122.29 0.88C122.91 0.89 123.53 0.94 124.15 1.04C124.73 1.14 125.29 1.33 125.82 1.59C126.86 2.13 127.7 2.97 128.23 4.01C128.5 4.53 128.68 5.09 128.77 5.66C128.87 6.29 128.93 6.92 128.94 7.55C128.95 7.83 128.95 8.14 128.95 8.44C128.95 8.81 128.95 9.17 128.95 9.53L128.95 30.46C128.95 30.82 128.95 31.18 128.95 31.54C128.95 31.86 128.95 32.16 128.94 32.46C128.93 33.09 128.87 33.71 128.77 34.32C128.68 34.9 128.5 35.46 128.23 35.99C127.97 36.5 127.63 36.97 127.22 37.37C126.81 37.79 126.34 38.13 125.82 38.4C125.29 38.66 124.73 38.85 124.15 38.95C123.53 39.05 122.91 39.1 122.28 39.11C121.99 39.12 121.68 39.12 121.38 39.12L120.3 39.12L18.61 39.12Z" fill="#000000" fill-opacity="1.000000" fill-rule="nonzero"/>
				<path id="&lt;Path&gt;" d="M34.93 20.3C34.94 19.46 35.16 18.64 35.58 17.92C35.99 17.19 36.58 16.58 37.29 16.14C36.84 15.5 36.24 14.97 35.55 14.59C34.86 14.22 34.08 14.01 33.3 13.99C31.62 13.81 29.99 14.99 29.13 14.99C28.26 14.99 26.94 14 25.53 14.03C24.61 14.06 23.71 14.33 22.93 14.81C22.15 15.29 21.5 15.96 21.05 16.76C19.12 20.11 20.56 25.03 22.41 27.74C23.34 29.06 24.42 30.54 25.84 30.49C27.23 30.43 27.75 29.61 29.42 29.61C31.08 29.61 31.57 30.49 33.01 30.46C34.5 30.43 35.44 29.12 36.33 27.79C37 26.84 37.51 25.8 37.85 24.69C36.99 24.33 36.25 23.72 35.73 22.93C35.21 22.15 34.93 21.23 34.93 20.3Z" fill="#FFFFFF" fill-opacity="1.000000" fill-rule="nonzero"/>
				<path id="&lt;Path&gt;" d="M32.2 12.21C33.01 11.23 33.41 9.98 33.32 8.72C32.08 8.85 30.93 9.44 30.11 10.37C29.71 10.83 29.4 11.37 29.2 11.94C29 12.52 28.92 13.13 28.96 13.74C29.58 13.74 30.2 13.61 30.76 13.34C31.32 13.08 31.81 12.69 32.2 12.21Z" fill="#FFFFFF" fill-opacity="1.000000" fill-rule="nonzero"/>
				<path id="Vector" d="M52.47 27.13L47.73 27.13L46.6 30.49L44.59 30.49L49.07 18.07L51.16 18.07L55.64 30.49L53.6 30.49L52.47 27.13ZM48.22 25.59L51.97 25.59L50.12 20.14L50.07 20.14L48.22 25.59Z" fill="#FFFFFF" fill-opacity="1.000000" fill-rule="nonzero"/>
				<path id="Vector" d="M65.32 25.96C65.32 28.78 63.82 30.59 61.54 30.59C60.97 30.62 60.4 30.48 59.89 30.2C59.39 29.92 58.97 29.51 58.7 29L58.65 29L58.65 33.49L56.79 33.49L56.79 21.44L58.59 21.44L58.59 22.94L58.63 22.94C58.92 22.44 59.34 22.03 59.85 21.74C60.35 21.46 60.93 21.32 61.51 21.34C63.81 21.34 65.32 23.16 65.32 25.96ZM63.41 25.96C63.41 24.13 62.46 22.93 61.02 22.93C59.6 22.93 58.64 24.16 58.64 25.96C58.64 27.79 59.6 29.01 61.02 29.01C62.46 29.01 63.41 27.81 63.41 25.96Z" fill="#FFFFFF" fill-opacity="1.000000" fill-rule="nonzero"/>
				<path id="Vector" d="M75.29 25.96C75.29 28.78 73.78 30.59 71.51 30.59C70.93 30.62 70.36 30.48 69.86 30.2C69.35 29.92 68.94 29.51 68.66 29L68.62 29L68.62 33.49L66.76 33.49L66.76 21.44L68.56 21.44L68.56 22.94L68.59 22.94C68.88 22.44 69.3 22.03 69.81 21.74C70.32 21.46 70.89 21.32 71.47 21.34C73.77 21.34 75.29 23.16 75.29 25.96ZM73.38 25.96C73.38 24.13 72.43 22.93 70.98 22.93C69.56 22.93 68.61 24.16 68.61 25.96C68.61 27.79 69.56 29.01 70.98 29.01C72.43 29.01 73.38 27.81 73.38 25.96Z" fill="#FFFFFF" fill-opacity="1.000000" fill-rule="nonzero"/>
				<path id="Vector" d="M81.87 27.03C82.01 28.26 83.21 29.07 84.84 29.07C86.41 29.07 87.54 28.26 87.54 27.15C87.54 26.19 86.86 25.61 85.25 25.22L83.64 24.83C81.36 24.28 80.3 23.21 80.3 21.48C80.3 19.34 82.17 17.87 84.82 17.87C87.44 17.87 89.24 19.34 89.3 21.48L87.42 21.48C87.31 20.24 86.29 19.49 84.79 19.49C83.29 19.49 82.27 20.25 82.27 21.35C82.27 22.23 82.92 22.75 84.52 23.14L85.89 23.48C88.44 24.08 89.5 25.1 89.5 26.92C89.5 29.24 87.65 30.7 84.71 30.7C81.95 30.7 80.09 29.28 79.97 27.03L81.87 27.03Z" fill="#FFFFFF" fill-opacity="1.000000" fill-rule="nonzero"/>
				<path id="Vector" d="M93.51 19.29L93.51 21.44L95.23 21.44L95.23 22.91L93.51 22.91L93.51 27.9C93.51 28.68 93.85 29.04 94.61 29.04C94.81 29.03 95.02 29.02 95.22 28.99L95.22 30.46C94.88 30.52 94.54 30.55 94.19 30.54C92.36 30.54 91.64 29.85 91.64 28.1L91.64 22.91L90.33 22.91L90.33 21.44L91.64 21.44L91.64 19.29L93.51 19.29Z" fill="#FFFFFF" fill-opacity="1.000000" fill-rule="nonzero"/>
				<path id="Vector" d="M96.23 25.96C96.23 23.12 97.91 21.33 100.52 21.33C103.15 21.33 104.82 23.12 104.82 25.96C104.82 28.82 103.16 30.6 100.52 30.6C97.89 30.6 96.23 28.82 96.23 25.96ZM102.92 25.96C102.92 24.01 102.03 22.86 100.52 22.86C99.02 22.86 98.12 24.02 98.12 25.96C98.12 27.93 99.02 29.07 100.52 29.07C102.03 29.07 102.92 27.93 102.92 25.96Z" fill="#FFFFFF" fill-opacity="1.000000" fill-rule="nonzero"/>
				<path id="Vector" d="M106.35 21.44L108.12 21.44L108.12 22.98L108.16 22.98C108.28 22.5 108.57 22.07 108.96 21.77C109.36 21.48 109.85 21.32 110.34 21.34C110.56 21.34 110.77 21.37 110.98 21.41L110.98 23.15C110.71 23.07 110.43 23.03 110.14 23.04C109.87 23.03 109.6 23.07 109.35 23.18C109.1 23.28 108.88 23.44 108.7 23.63C108.51 23.83 108.37 24.07 108.29 24.32C108.2 24.58 108.18 24.85 108.21 25.12L108.21 30.49L106.35 30.49L106.35 21.44Z" fill="#FFFFFF" fill-opacity="1.000000" fill-rule="nonzero"/>
				<path id="Vector" d="M119.55 27.83C119.3 29.48 117.7 30.6 115.65 30.6C113.02 30.6 111.38 28.84 111.38 26.01C111.38 23.17 113.02 21.33 115.57 21.33C118.08 21.33 119.65 23.05 119.65 25.79L119.65 26.43L113.26 26.43L113.26 26.54C113.23 26.87 113.27 27.21 113.38 27.53C113.49 27.84 113.66 28.13 113.89 28.37C114.13 28.62 114.4 28.81 114.71 28.93C115.02 29.06 115.36 29.12 115.69 29.11C116.13 29.15 116.57 29.04 116.95 28.82C117.33 28.59 117.62 28.24 117.78 27.83L119.55 27.83ZM113.27 25.13L117.79 25.13C117.81 24.83 117.76 24.53 117.66 24.25C117.55 23.97 117.39 23.71 117.18 23.5C116.97 23.28 116.72 23.11 116.45 23C116.17 22.88 115.87 22.83 115.57 22.83C115.27 22.83 114.97 22.89 114.69 23C114.41 23.12 114.15 23.29 113.94 23.5C113.72 23.71 113.56 23.97 113.44 24.25C113.32 24.53 113.26 24.83 113.27 25.13Z" fill="#FFFFFF" fill-opacity="1.000000" fill-rule="nonzero"/>
				<path id="Vector" d="M47.99 8.73C48.38 8.7 48.77 8.76 49.13 8.9C49.5 9.04 49.83 9.26 50.09 9.54C50.36 9.83 50.57 10.17 50.69 10.54C50.81 10.91 50.85 11.3 50.8 11.69C50.8 13.6 49.77 14.69 47.99 14.69L45.83 14.69L45.83 8.73L47.99 8.73ZM46.76 13.85L47.89 13.85C48.16 13.87 48.44 13.82 48.7 13.72C48.96 13.61 49.19 13.45 49.38 13.25C49.57 13.04 49.71 12.79 49.79 12.53C49.87 12.26 49.89 11.98 49.85 11.7C49.89 11.43 49.87 11.15 49.78 10.88C49.7 10.62 49.56 10.38 49.37 10.17C49.18 9.97 48.95 9.81 48.7 9.7C48.44 9.6 48.16 9.55 47.89 9.57L46.76 9.57L46.76 13.85Z" fill="#FFFFFF" fill-opacity="1.000000" fill-rule="nonzero"/>
				<path id="Vector" d="M51.84 12.44C51.82 12.14 51.85 11.84 51.94 11.56C52.04 11.28 52.19 11.02 52.39 10.8C52.59 10.58 52.83 10.41 53.1 10.29C53.38 10.16 53.67 10.1 53.97 10.1C54.26 10.1 54.56 10.16 54.83 10.29C55.1 10.41 55.35 10.58 55.55 10.8C55.75 11.02 55.9 11.28 55.99 11.56C56.09 11.84 56.12 12.14 56.09 12.44C56.12 12.74 56.09 13.03 55.99 13.32C55.9 13.6 55.75 13.86 55.55 14.08C55.35 14.3 55.1 14.48 54.83 14.6C54.56 14.72 54.27 14.78 53.97 14.78C53.67 14.78 53.38 14.72 53.1 14.6C52.83 14.48 52.59 14.3 52.39 14.08C52.19 13.86 52.04 13.6 51.94 13.32C51.85 13.03 51.82 12.74 51.84 12.44ZM55.18 12.44C55.18 11.46 54.74 10.89 53.97 10.89C53.2 10.89 52.76 11.46 52.76 12.44C52.76 13.42 53.2 13.99 53.97 13.99C54.74 13.99 55.18 13.42 55.18 12.44Z" fill="#FFFFFF" fill-opacity="1.000000" fill-rule="nonzero"/>
				<path id="Vector" d="M61.74 14.69L60.81 14.69L59.88 11.38L59.81 11.38L58.89 14.69L57.97 14.69L56.73 10.19L57.63 10.19L58.44 13.63L58.51 13.63L59.43 10.19L60.29 10.19L61.21 13.63L61.28 13.63L62.08 10.19L62.97 10.19L61.74 14.69Z" fill="#FFFFFF" fill-opacity="1.000000" fill-rule="nonzero"/>
				<path id="Vector" d="M64.02 10.19L64.87 10.19L64.87 10.91L64.94 10.91C65.05 10.65 65.24 10.43 65.48 10.29C65.72 10.15 66 10.08 66.28 10.1C66.5 10.09 66.72 10.12 66.93 10.2C67.13 10.28 67.31 10.41 67.46 10.57C67.61 10.73 67.73 10.92 67.79 11.13C67.86 11.34 67.87 11.56 67.84 11.78L67.84 14.69L66.95 14.69L66.95 12C66.95 11.28 66.64 10.92 65.98 10.92C65.83 10.91 65.68 10.94 65.54 10.99C65.41 11.05 65.28 11.13 65.18 11.24C65.08 11.35 65 11.48 64.95 11.62C64.91 11.76 64.89 11.91 64.91 12.06L64.91 14.69L64.02 14.69L64.02 10.19Z" fill="#FFFFFF" fill-opacity="1.000000" fill-rule="nonzero"/>
				<path id="Vector" d="M69.26 8.43L70.15 8.43L70.15 14.69L69.26 14.69L69.26 8.43Z" fill="#FFFFFF" fill-opacity="1.000000" fill-rule="nonzero"/>
				<path id="Vector" d="M71.38 12.44C71.35 12.14 71.39 11.84 71.48 11.56C71.57 11.28 71.73 11.02 71.93 10.8C72.13 10.58 72.37 10.41 72.64 10.29C72.91 10.16 73.21 10.1 73.5 10.1C73.8 10.1 74.1 10.16 74.37 10.29C74.64 10.41 74.88 10.58 75.08 10.8C75.28 11.02 75.44 11.28 75.53 11.56C75.62 11.84 75.66 12.14 75.63 12.44C75.66 12.74 75.62 13.03 75.53 13.32C75.44 13.6 75.29 13.86 75.08 14.08C74.88 14.3 74.64 14.48 74.37 14.6C74.1 14.72 73.8 14.78 73.5 14.78C73.21 14.78 72.91 14.72 72.64 14.6C72.37 14.48 72.12 14.3 71.92 14.08C71.72 13.86 71.57 13.6 71.48 13.32C71.39 13.03 71.35 12.74 71.38 12.44ZM74.71 12.44C74.71 11.46 74.28 10.89 73.51 10.89C72.73 10.89 72.3 11.46 72.3 12.44C72.3 13.42 72.73 13.99 73.51 13.99C74.28 13.99 74.71 13.42 74.71 12.44Z" fill="#FFFFFF" fill-opacity="1.000000" fill-rule="nonzero"/>
				<path id="Vector" d="M76.56 13.42C76.56 12.61 77.17 12.14 78.24 12.07L79.46 12L79.46 11.62C79.46 11.14 79.14 10.87 78.54 10.87C78.04 10.87 77.7 11.05 77.6 11.37L76.74 11.37C76.83 10.6 77.56 10.1 78.58 10.1C79.71 10.1 80.34 10.66 80.34 11.62L80.34 14.69L79.49 14.69L79.49 14.06L79.42 14.06C79.27 14.29 79.07 14.47 78.84 14.6C78.6 14.72 78.33 14.78 78.06 14.77C77.87 14.79 77.68 14.77 77.5 14.71C77.32 14.65 77.16 14.55 77.01 14.43C76.87 14.3 76.76 14.14 76.68 13.97C76.6 13.8 76.56 13.61 76.56 13.42ZM79.46 13.03L79.46 12.66L78.36 12.73C77.74 12.77 77.46 12.98 77.46 13.38C77.46 13.78 77.81 14.02 78.29 14.02C78.43 14.03 78.58 14.02 78.71 13.98C78.85 13.93 78.97 13.87 79.08 13.77C79.19 13.68 79.28 13.57 79.35 13.44C79.41 13.31 79.45 13.18 79.46 13.03Z" fill="#FFFFFF" fill-opacity="1.000000" fill-rule="nonzero"/>
				<path id="Vector" d="M81.51 12.44C81.51 11.02 82.24 10.12 83.38 10.12C83.66 10.1 83.94 10.17 84.19 10.31C84.43 10.45 84.63 10.66 84.76 10.91L84.83 10.91L84.83 8.43L85.72 8.43L85.72 14.69L84.86 14.69L84.86 13.98L84.79 13.98C84.65 14.23 84.45 14.43 84.2 14.57C83.95 14.71 83.66 14.78 83.38 14.77C82.23 14.77 81.51 13.87 81.51 12.44ZM82.43 12.44C82.43 13.4 82.88 13.97 83.63 13.97C84.38 13.97 84.84 13.39 84.84 12.44C84.84 11.51 84.38 10.91 83.63 10.91C82.88 10.91 82.43 11.49 82.43 12.44Z" fill="#FFFFFF" fill-opacity="1.000000" fill-rule="nonzero"/>
				<path id="Vector" d="M89.39 12.44C89.36 12.14 89.4 11.84 89.49 11.56C89.59 11.28 89.74 11.02 89.94 10.8C90.14 10.58 90.38 10.41 90.65 10.29C90.92 10.16 91.22 10.1 91.52 10.1C91.81 10.1 92.11 10.16 92.38 10.29C92.65 10.41 92.9 10.58 93.09 10.8C93.29 11.02 93.45 11.28 93.54 11.56C93.63 11.84 93.67 12.14 93.64 12.44C93.67 12.74 93.64 13.03 93.54 13.32C93.45 13.6 93.3 13.86 93.1 14.08C92.9 14.3 92.65 14.48 92.38 14.6C92.11 14.72 91.81 14.78 91.52 14.78C91.22 14.78 90.92 14.72 90.65 14.6C90.38 14.48 90.14 14.3 89.94 14.08C89.74 13.86 89.58 13.6 89.49 13.32C89.4 13.03 89.36 12.74 89.39 12.44ZM92.73 12.44C92.73 11.46 92.29 10.89 91.52 10.89C90.75 10.89 90.31 11.46 90.31 12.44C90.31 13.42 90.75 13.99 91.52 13.99C92.29 13.99 92.73 13.42 92.73 12.44Z" fill="#FFFFFF" fill-opacity="1.000000" fill-rule="nonzero"/>
				<path id="Vector" d="M94.83 10.19L95.69 10.19L95.69 10.91L95.75 10.91C95.87 10.65 96.06 10.43 96.3 10.29C96.54 10.15 96.82 10.08 97.1 10.1C97.32 10.09 97.54 10.12 97.74 10.2C97.95 10.28 98.13 10.41 98.28 10.57C98.43 10.73 98.54 10.92 98.61 11.13C98.67 11.34 98.69 11.56 98.66 11.78L98.66 14.69L97.77 14.69L97.77 12C97.77 11.28 97.45 10.92 96.8 10.92C96.65 10.91 96.5 10.94 96.36 10.99C96.22 11.05 96.1 11.13 96 11.24C95.89 11.35 95.82 11.48 95.77 11.62C95.72 11.76 95.71 11.91 95.72 12.06L95.72 14.69L94.83 14.69L94.83 10.19Z" fill="#FFFFFF" fill-opacity="1.000000" fill-rule="nonzero"/>
				<path id="Vector" d="M103.68 9.07L103.68 10.21L104.65 10.21L104.65 10.96L103.68 10.96L103.68 13.28C103.68 13.75 103.87 13.95 104.31 13.95C104.43 13.95 104.54 13.95 104.65 13.93L104.65 14.67C104.49 14.7 104.33 14.72 104.17 14.72C103.18 14.72 102.79 14.37 102.79 13.5L102.79 10.96L102.07 10.96L102.07 10.21L102.79 10.21L102.79 9.07L103.68 9.07Z" fill="#FFFFFF" fill-opacity="1.000000" fill-rule="nonzero"/>
				<path id="Vector" d="M105.87 8.43L106.75 8.43L106.75 10.91L106.82 10.91C106.94 10.65 107.13 10.44 107.38 10.29C107.62 10.15 107.91 10.08 108.19 10.11C108.41 10.1 108.63 10.13 108.83 10.21C109.03 10.3 109.22 10.42 109.36 10.58C109.51 10.74 109.62 10.93 109.69 11.14C109.75 11.35 109.77 11.57 109.74 11.79L109.74 14.69L108.85 14.69L108.85 12C108.85 11.29 108.52 10.92 107.89 10.92C107.74 10.91 107.58 10.93 107.44 10.98C107.3 11.04 107.17 11.12 107.06 11.23C106.95 11.34 106.87 11.47 106.82 11.61C106.76 11.76 106.74 11.91 106.76 12.06L106.76 14.69L105.87 14.69L105.87 8.43Z" fill="#FFFFFF" fill-opacity="1.000000" fill-rule="nonzero"/>
				<path id="Vector" d="M114.93 13.48C114.8 13.89 114.54 14.24 114.19 14.48C113.83 14.72 113.4 14.83 112.97 14.78C112.68 14.79 112.38 14.73 112.11 14.61C111.84 14.5 111.59 14.32 111.4 14.1C111.2 13.88 111.05 13.62 110.96 13.33C110.88 13.05 110.85 12.75 110.89 12.46C110.85 12.16 110.88 11.86 110.97 11.58C111.05 11.29 111.2 11.03 111.39 10.8C111.59 10.58 111.83 10.4 112.11 10.28C112.38 10.16 112.67 10.1 112.97 10.1C114.22 10.1 114.98 10.96 114.98 12.37L114.98 12.68L111.8 12.68L111.8 12.73C111.78 12.9 111.81 13.06 111.86 13.22C111.91 13.38 112 13.52 112.11 13.64C112.23 13.76 112.36 13.86 112.52 13.93C112.67 13.99 112.83 14.02 113 14.02C113.21 14.05 113.43 14.01 113.62 13.91C113.81 13.82 113.97 13.66 114.07 13.48L114.93 13.48ZM111.8 12.03L114.07 12.03C114.08 11.87 114.06 11.72 114.01 11.58C113.96 11.44 113.88 11.31 113.78 11.2C113.67 11.09 113.55 11 113.41 10.94C113.27 10.88 113.12 10.86 112.97 10.86C112.81 10.86 112.66 10.89 112.52 10.94C112.37 11 112.24 11.09 112.14 11.2C112.03 11.3 111.94 11.43 111.88 11.58C111.83 11.72 111.8 11.87 111.8 12.03Z" fill="#FFFFFF" fill-opacity="1.000000" fill-rule="nonzero"/>
			</g>
		</g>
	</g>
</svg>
