<svg width="379.000000" height="269.000000" viewBox="0 0 379 269" fill="none" xmlns="http://www.w3.org/2000/svg" xmlns:xlink="http://www.w3.org/1999/xlink">
	<desc>
			Created with Pixso.
	</desc>
	<defs>
		<clipPath id="clip2_1954">
			<rect id="irl_event.svg" rx="0.000000" width="378.000000" height="268.000000" transform="translate(0.500000 0.500000)" fill="white" fill-opacity="0"/>
		</clipPath>
		<clipPath id="clip2_1945">
			<rect id="irl_event.svg fill" rx="0.000000" width="378.000000" height="268.000000" transform="translate(0.500000 0.500000)" fill="white" fill-opacity="0"/>
		</clipPath>
		<clipPath id="clip2_1944">
			<rect id="irl_event.svg" rx="0.000000" width="378.000000" height="268.000000" transform="translate(0.500000 0.500000)" fill="white" fill-opacity="0"/>
		</clipPath>
	</defs>
	<g clip-path="url(#clip2_1944)">
		<g clip-path="url(#clip2_1945)">
			<g clip-path="url(#clip2_1954)">
				<mask id="mask2_1958" mask-type="alpha" maskUnits="userSpaceOnUse" x="0.000000" y="0.000000" width="378.841797" height="269.000000">
					<path id="Vector" d="M0 0L378.84 0L378.84 269L0 269L0 0Z" fill="#FFFFFF" fill-opacity="1.000000" fill-rule="nonzero"/>
				</mask>
				<g mask="url(#mask2_1958)">
					<g opacity="0.212000" style="mix-blend-mode:multiply">
						<path id="Vector" d="M300.16 196.6C292.14 210.18 283.1 219.8 271.93 227.62C263.75 233.35 254.98 237.88 245.69 241.27C236.16 244.75 226.27 247.17 216.19 248.7C201.56 250.92 186.86 251.75 172.03 251.09C155.55 250.37 139.57 247.22 124.37 240.8C118.79 238.44 113.21 235.78 108.38 231.88C104.73 228.93 100.58 226.51 97.29 223.23C92.49 218.45 87.93 213.35 83.88 207.93C75.74 197.04 71.08 184.63 69.42 171.22C68.5 163.88 67.56 156.47 67.6 149.11C67.66 141.47 68.8 133.84 69.63 126.22C70.33 119.77 71.13 113.33 72.1 106.92C73.52 97.54 74.57 88.05 76.79 78.86C79.63 67.16 82.56 55.36 88.82 44.85C94.88 34.65 102.7 25.95 113.09 20.09C122.19 14.96 132.2 12.78 142.82 12.93C154.56 13.09 165.2 16.86 175.11 22.54C182.36 26.69 189 31.88 195.16 37.61C200.24 42.33 205.26 47.17 210.74 51.39C216.51 55.83 222.28 60.37 228.89 63.62L256.96 77.59C265.13 81.78 272.61 87.04 279.74 92.82C285.6 97.56 290.6 103.08 294.76 109.25C302.59 120.86 308.37 133.27 309.5 147.5C310.18 155.97 310.57 164.36 308.69 172.67C307.77 176.72 306.67 180.76 305.24 184.65C303.49 189.38 301.3 193.95 300.16 196.6L300.16 196.6Z" fill="#E6A386" fill-opacity="1.000000" fill-rule="evenodd"/>
					</g>
				</g>
				<path id="Vector" d="M96.46 175.29L65.43 212.67L277.79 212.67L304.34 175.29L96.46 175.29Z" stroke="#FA6666" stroke-opacity="1.000000" stroke-width="3.934000" stroke-linejoin="round"/>
				<path id="Vector" d="M104.74 175.29L115.83 211.66M157.16 175.29L169.26 214.69M209.58 175.29L223.7 214.69M264.02 175.29L275.11 212.67" stroke="#FA6666" stroke-opacity="1.000000" stroke-width="3.934000" stroke-linejoin="round" stroke-linecap="round"/>
				<path id="Vector" d="M290.23 153.06L334.59 214.69" stroke="#FA6666" stroke-opacity="1.000000" stroke-width="7.868000" stroke-linejoin="round" stroke-linecap="round"/>
				<path id="Vector" d="M294.24 169.22L300.54 169.22C305.98 169.22 310.39 166.65 310.39 161.39C310.39 156.12 305.98 152.05 300.54 152.05L285.19 152.05" stroke="#00455D" stroke-opacity="1.000000" stroke-width="1.868000" stroke-linejoin="round" stroke-linecap="round"/>
				<path id="Vector" d="M294.07 151.04L291.76 151.04L285.19 151.04L330.17 212.54C330.17 212.54 332.29 217.07 334.61 215.28C336.93 213.49 334.8 210.81 331.91 207.36C329.01 203.91 292.11 151.44 292.11 151.44" stroke="#00455D" stroke-opacity="1.000000" stroke-width="1.868000" stroke-linejoin="round" stroke-linecap="round"/>
				<path id="Vector" d="M306.36 180.03L278.84 217.47L66.23 217.47C62.04 216.89 63.76 214.28 63.76 214.28L96.52 173.27L301.54 173.27" stroke="#00455D" stroke-opacity="1.000000" stroke-width="1.868000" stroke-linejoin="round" stroke-linecap="round"/>
				<path id="Vector" d="M269.06 178.32L277.86 209.64L299.31 178.32L269.06 178.32ZM225.37 210.65L272.09 210.65L262.84 178.32L215.63 178.32L225.37 210.65ZM171.62 210.39L218.66 210.65L208.23 178.32L161.2 178.32L171.62 210.39Z" stroke="#00455D" stroke-opacity="1.000000" stroke-width="1.868000" stroke-linejoin="round"/>
				<path id="Vector" d="M117.88 210.65L165.23 210.65L155.12 178.32L107.77 178.32L117.88 210.65Z" stroke="#353E48" stroke-opacity="1.000000" stroke-width="1.868000" stroke-linejoin="round"/>
				<path id="Vector" d="M97.04 178.32L102.3 178.32L111.8 212.67L70.47 212.67L97.04 178.32Z" stroke="#00455D" stroke-opacity="1.000000" stroke-width="1.705000" stroke-linejoin="round"/>
				<path id="Vector" d="M99.7 215.2C99.7 235 83.91 251.06 64.42 251.06C44.93 251.06 29.14 235 29.14 215.2C29.14 195.39 44.93 179.33 64.42 179.33C83.91 179.33 99.7 195.39 99.7 215.2ZM369.87 215.2C369.87 235 354.07 251.06 334.59 251.06C315.1 251.06 299.3 235 299.3 215.2C299.3 195.39 315.1 179.33 334.59 179.33C354.07 179.33 369.87 195.39 369.87 215.2Z" fill="#FA6666" fill-opacity="1.000000" fill-rule="evenodd"/>
				<path id="Vector" d="M64.42 251.06C44.93 251.06 29.14 235 29.14 215.2C29.14 195.39 44.93 179.33 64.42 179.33C83.91 179.33 99.7 195.39 99.7 215.2C99.7 235 83.91 251.06 64.42 251.06ZM334.59 251.06C315.1 251.06 299.3 235 299.3 215.2C299.3 195.39 315.1 179.33 334.59 179.33C354.07 179.33 369.87 195.39 369.87 215.2C369.87 235 354.07 251.06 334.59 251.06Z" stroke="#00455D" stroke-opacity="1.000000" stroke-width="1.868000" stroke-linejoin="round"/>
				<path id="Vector" d="M65.43 227.82C58.19 227.82 52.32 221.94 52.32 214.69C52.32 207.44 58.19 201.56 65.43 201.56C72.66 201.56 78.53 207.44 78.53 214.69C78.53 221.94 72.67 227.82 65.43 227.82Z" stroke="#00455D" stroke-opacity="1.000000" stroke-width="1.868000" stroke-linejoin="round"/>
				<path id="Vector" d="M124.9 214.18C124.91 216.73 123.9 219.17 122.1 220.97C120.31 222.77 117.87 223.78 115.33 223.78C112.78 223.78 110.34 222.77 108.54 220.97C106.74 219.17 105.73 216.73 105.73 214.18C105.73 211.64 106.74 209.2 108.54 207.4C110.34 205.6 112.78 204.59 115.33 204.59C117.87 204.59 120.31 205.6 122.1 207.4C123.9 209.2 124.91 211.64 124.9 214.18Z" fill="#97CAD1" fill-opacity="1.000000" fill-rule="nonzero"/>
				<path id="Vector" d="M122.1 220.97C120.31 222.77 117.87 223.78 115.33 223.78C112.78 223.78 110.34 222.77 108.54 220.97C106.74 219.17 105.73 216.73 105.73 214.18C105.73 211.64 106.74 209.2 108.54 207.4C110.34 205.6 112.78 204.59 115.33 204.59C117.87 204.59 120.31 205.6 122.1 207.4C123.9 209.2 124.91 211.64 124.9 214.18C124.91 216.73 123.9 219.17 122.1 220.97Z" stroke="#00455D" stroke-opacity="1.000000" stroke-width="1.868000" stroke-linejoin="round"/>
				<path id="Vector" d="M179.34 214.18C179.34 216.73 178.34 219.17 176.54 220.97C174.75 222.77 172.31 223.78 169.77 223.78C167.22 223.78 164.78 222.77 162.98 220.97C161.18 219.17 160.17 216.73 160.17 214.18C160.17 211.64 161.18 209.2 162.98 207.4C164.78 205.6 167.22 204.59 169.77 204.59C172.31 204.59 174.75 205.6 176.54 207.4C178.34 209.2 179.34 211.64 179.34 214.18Z" fill="#97CAD1" fill-opacity="1.000000" fill-rule="nonzero"/>
				<path id="Vector" d="M176.54 220.97C174.75 222.77 172.31 223.78 169.77 223.78C167.22 223.78 164.78 222.77 162.98 220.97C161.18 219.17 160.17 216.73 160.17 214.18C160.17 211.64 161.18 209.2 162.98 207.4C164.78 205.6 167.22 204.59 169.77 204.59C172.31 204.59 174.75 205.6 176.54 207.4C178.34 209.2 179.34 211.64 179.34 214.18C179.34 216.73 178.34 219.17 176.54 220.97Z" stroke="#00455D" stroke-opacity="1.000000" stroke-width="1.868000" stroke-linejoin="round"/>
				<path id="Vector" d="M233.78 214.18C233.78 216.73 232.77 219.17 230.98 220.97C229.18 222.77 226.74 223.78 224.2 223.78C218.91 223.78 214.63 219.49 214.63 214.18C214.63 208.88 218.91 204.59 224.2 204.59C226.74 204.59 229.18 205.6 230.98 207.4C232.77 209.2 233.78 211.64 233.78 214.18Z" fill="#97CAD1" fill-opacity="1.000000" fill-rule="nonzero"/>
				<path id="Vector" d="M230.98 220.97C229.18 222.77 226.74 223.78 224.2 223.78C218.91 223.78 214.63 219.49 214.63 214.18C214.63 208.88 218.91 204.59 224.2 204.59C226.74 204.59 229.18 205.6 230.98 207.4C232.77 209.2 233.78 211.64 233.78 214.18C233.78 216.73 232.77 219.17 230.98 220.97Z" stroke="#00455D" stroke-opacity="1.000000" stroke-width="1.868000" stroke-linejoin="round"/>
				<path id="Vector" d="M287.21 214.18C287.21 216.73 286.2 219.17 284.41 220.97C282.61 222.77 280.17 223.78 277.63 223.78C275.09 223.78 272.64 222.77 270.84 220.97C269.04 219.17 268.03 216.73 268.03 214.18C268.03 211.64 269.04 209.2 270.84 207.4C272.64 205.6 275.09 204.59 277.63 204.59C280.17 204.59 282.61 205.6 284.41 207.4C286.2 209.2 287.21 211.64 287.21 214.18Z" fill="#97CAD1" fill-opacity="1.000000" fill-rule="nonzero"/>
				<path id="Vector" d="M284.41 220.97C282.61 222.77 280.17 223.78 277.63 223.78C275.09 223.78 272.64 222.77 270.84 220.97C269.04 219.17 268.03 216.73 268.03 214.18C268.03 211.64 269.04 209.2 270.84 207.4C272.64 205.6 275.09 204.59 277.63 204.59C280.17 204.59 282.61 205.6 284.41 207.4C286.2 209.2 287.21 211.64 287.21 214.18C287.21 216.73 286.2 219.17 284.41 220.97Z" stroke="#00455D" stroke-opacity="1.000000" stroke-width="1.868000" stroke-linejoin="round"/>
				<path id="Vector" d="M340.86 220.97C339.06 222.77 336.63 223.78 334.08 223.78C331.54 223.78 329.1 222.77 327.3 220.97C325.5 219.17 324.49 216.73 324.49 214.18C324.49 211.64 325.5 209.2 327.3 207.4C329.1 205.6 331.54 204.59 334.08 204.59C336.63 204.59 339.06 205.6 340.86 207.4C342.66 209.2 343.66 211.64 343.66 214.18C343.66 216.73 342.66 219.17 340.86 220.97Z" stroke="#353E48" stroke-opacity="1.000000" stroke-width="1.868000" stroke-linejoin="round"/>
				<path id="Vector" d="M86.63 99.51L77.53 147.58C77.53 147.58 81.57 151.08 83.31 149.71C85.04 148.34 90.1 142.41 95.74 142.56L97.77 142.71C97.77 142.71 96.88 136.63 99.64 132.67C102.39 128.72 114.83 101.03 86.63 99.51Z" fill="#0098AB" fill-opacity="1.000000" fill-rule="evenodd"/>
				<path id="Vector" d="M102.72 169.37C115.91 177.41 114.86 174.74 116.51 178.41C118.15 182.07 132.09 200.55 132.09 200.55L140.03 193.37C140.03 193.37 120.25 161.89 97.48 144.4C97.48 144.4 91.79 142.75 89.69 145.89C87.59 149.03 83.84 152.17 80.55 151.42C80.55 151.42 81 158.75 102.72 169.37Z" fill="#F6F7F8" fill-opacity="1.000000" fill-rule="evenodd"/>
				<path id="Vector" d="M125.91 148.01C125.91 148.01 134.13 144.63 139.5 144.94C144.88 145.25 149.06 144.17 149.06 144.17C149.06 144.17 152.95 123.76 148.32 119.92L158.17 114.25C158.17 114.25 157.13 93.99 142.04 87.39C142.04 87.39 134.43 89.84 129.2 123.61L125.91 148.01ZM126.92 149.69C126.92 149.69 127.07 154.46 129.67 156.77C132.26 159.08 156.64 171.71 156.64 171.71C156.64 171.71 171.76 187.72 174.97 192.8C178.17 197.88 182.44 203.58 182.44 203.58L191.44 195.67C191.44 195.67 178.17 163.08 149.65 145.99C149.65 145.99 139.58 145.84 134.85 147.07C130.12 148.3 126.92 149.69 126.92 149.69Z" fill="#EFDECC" fill-opacity="1.000000" fill-rule="evenodd"/>
				<path id="Vector" d="M184.18 146.67C184.18 146.67 182.37 153.62 184.18 156.94C186 160.25 212.56 180.34 212.56 180.34L219.67 168.25L203.02 147.77C203.02 147.77 199.28 145.39 197.41 146.67C195.54 147.97 190.15 147.15 189.01 146.29C187.87 145.43 184.18 146.67 184.18 146.67Z" fill="#0098AB" fill-opacity="1.000000" fill-rule="evenodd"/>
				<path id="Vector" d="M201.75 97.49C201.75 97.49 211.04 103.26 211.3 118.26C211.57 133.25 212.91 135.95 212.91 135.95L215.63 139.65L211.3 144.02L206.18 141.52L204.64 149.02C204.64 149.02 202.14 145.61 198.48 145.78C194.83 145.94 192.52 147.53 188.28 145.78C184.05 144.02 181.36 144.86 181.36 144.86L201.75 97.49Z" fill="#F6F7F8" fill-opacity="1.000000" fill-rule="evenodd"/>
				<path id="Vector" d="M224.9 85.37L221.38 88.39C221.38 88.39 222.77 91.3 221.49 93.14C220.35 94.76 219.25 97.21 217.11 97.49C214.98 97.78 213.38 99.5 212.74 101.88C212.1 104.25 214.02 107.6 214.02 107.6L228.74 87.74L224.9 85.37Z" fill="#FFFFFF" fill-opacity="1.000000" fill-rule="evenodd"/>
				<path id="Vector" d="M220.6 83.37C220.6 83.37 218.49 91.74 199.36 87.72C196.43 86.72 188.22 89.63 186.34 90.74C184.47 91.86 177.66 92.08 176.49 87.72C175.32 83.37 180.5 82.36 181.6 82.36C182.71 82.36 186.22 79.67 183.76 76.77C182.36 75.42 188.1 73.86 193.62 74.98C199.13 76.1 207.34 73.32 212.86 74.6C218.37 75.87 221.18 81.02 220.6 83.37Z" fill="#EFDECC" fill-opacity="1.000000" fill-rule="evenodd"/>
				<path id="Vector" d="M229.7 38.89L206.56 52.34L233.78 61.12L229.7 38.89Z" fill="#FA6666" fill-opacity="1.000000" fill-rule="evenodd"/>
				<path id="Vector" d="M243.76 104.27C243.76 104.27 236.86 118.75 236.05 126.76C235.23 134.76 232.77 154.07 232.77 154.07L256.04 150.3C256.04 150.3 254.4 145 256.04 140.88C257.68 136.76 261.3 123.58 261.3 123.58L257.44 121.46L262.01 108.39C262.01 108.39 252.77 101.33 243.76 104.27Z" fill="#FFFFFF" fill-opacity="1.000000" fill-rule="evenodd"/>
				<path id="Vector" d="M237.81 156.73C237.81 156.73 253.03 170.41 258.75 173.27L270.07 161.08L256.45 151.04L237.81 156.73Z" fill="#EFDECC" fill-opacity="1.000000" fill-rule="evenodd"/>
				<path id="Vector" d="M142.07 68.19C142.07 68.19 141.16 58.96 149.03 56.52C156.9 54.08 163.21 62.36 163.21 62.36L142.07 68.19ZM297.29 211.67L301.72 219.74C301.72 219.74 308.18 214.59 308.31 212.64C308.44 210.69 310.46 209.86 311 209.86C311.53 209.86 319.47 200.39 319.47 200.39C319.47 200.39 316.78 196.91 313.68 197.61C310.59 198.3 305.62 201.09 305.62 201.09C305.62 201.09 304.01 208.1 300.51 208.63L297.29 211.67Z" fill="#0098AB" fill-opacity="1.000000" fill-rule="evenodd"/>
				<path id="Vector" d="M227.73 157.1L246.88 172.26" stroke="#00455D" stroke-opacity="1.000000" stroke-width="1.868000" stroke-linejoin="round" stroke-linecap="round"/>
				<path id="Vector" d="M205.86 90.42C205.86 90.42 202.78 97.64 199.87 97.82C197.47 102.88 180.35 147 180.35 147C180.35 147 184.29 144.88 186.86 146.13C189.42 147.38 191.65 148.76 195.07 147.53C198.5 146.3 202.6 146.86 204.32 148.01L207.57 142.21" stroke="#00455D" stroke-opacity="1.000000" stroke-width="1.705000" stroke-linejoin="round" stroke-linecap="round"/>
				<path id="Vector" d="M199.5 112.1L203.9 133.92C204.82 136.99 207.38 141.55 212.33 144.06C217.28 146.56 221.13 151.54 221.13 154.38C221.13 157.21 226.99 158.11 226.99 158.11C226.99 158.11 232.12 155.01 224.79 147.08C217.46 139.15 212.15 135.1 212.15 135.1C212.15 135.1 216 105.06 207.57 101.53M213.65 109.62L241.84 73.67C241.84 73.67 242.02 70.95 238.2 71.52L235.11 68.19C235.11 68.19 229.48 73.22 229.93 74.42C230.38 75.62 232.75 76.67 230.56 79.15C228.38 81.63 221.83 87.64 221.83 87.64C221.83 87.64 223.47 94.53 219.83 95.41C216.2 96.3 210.37 99.45 211.83 103.61" stroke="#00455D" stroke-opacity="1.000000" stroke-width="1.868000" stroke-linejoin="round" stroke-linecap="round"/>
				<path id="Vector" d="M221.68 82.34C221.68 82.34 221.68 72.16 209.59 71.22M216.64 78.3C216.64 78.3 215.93 73.46 204.88 74.37C193.82 75.28 191.51 74.94 187.41 74.25M212.61 78.86C212.61 78.86 206.68 77.34 203.37 78.76C201.27 80.01 194.47 78.89 190.64 77.67C186.8 76.46 180.35 78.49 180.35 78.49M217.65 81.33C217.65 81.33 213.79 85.08 194.14 82.24C184.67 82.24 180.35 85.37 180.35 85.37M218.66 85.37C218.66 85.37 211.49 88.47 202.23 86.99C192.96 85.5 188.42 87.39 188.42 87.39" stroke="#00455D" stroke-opacity="1.000000" stroke-width="1.705000" stroke-linejoin="round" stroke-linecap="round"/>
				<path id="Vector" d="M243.63 195.49C243.63 195.49 250.62 205.96 252.94 205.7C255.27 205.43 259.02 199.6 262 199.87C264.97 200.13 266.78 200.55 267.04 201.34C267.3 202.12 254.63 220 253.59 219.74C252.55 219.48 248.42 212.19 248.42 212.19L237.81 207.62L240.14 202.25L243.63 195.49Z" fill="#0098AB" fill-opacity="1.000000" fill-rule="nonzero"/>
				<path id="Vector" d="M243.63 195.49C243.63 195.49 250.62 205.96 252.94 205.7C255.27 205.43 259.02 199.6 262 199.87C264.97 200.13 266.78 200.55 267.04 201.34C267.3 202.12 254.63 220 253.59 219.74C252.55 219.48 248.42 212.19 248.42 212.19L237.81 207.62L240.14 202.25" stroke="#00455D" stroke-opacity="1.000000" stroke-width="1.868000" stroke-linejoin="round" stroke-linecap="round"/>
				<path id="Vector" d="M222.69 150.53C222.69 152.49 221.11 154.07 219.16 154.07C217.21 154.07 215.63 152.49 215.63 150.53C215.63 148.58 217.21 147 219.16 147C221.11 147 222.69 148.58 222.69 150.53Z" fill="#FFFFFF" fill-opacity="1.000000" fill-rule="nonzero"/>
				<path id="Vector" d="M219.16 154.07C217.21 154.07 215.63 152.49 215.63 150.53C215.63 148.58 217.21 147 219.16 147C221.11 147 222.69 148.58 222.69 150.53C222.69 152.49 221.11 154.07 219.16 154.07Z" stroke="#00455D" stroke-opacity="1.000000" stroke-width="1.868000" stroke-linejoin="bevel"/>
				<path id="Vector" d="M238.82 87.39L231.22 35.86C231.22 35.86 206.56 51.33 206.56 53.43C206.56 55.53 236.64 66.04 236.64 66.04M211.6 144.98L217.65 138.92" stroke="#00455D" stroke-opacity="1.000000" stroke-width="1.868000" stroke-linejoin="round" stroke-linecap="round"/>
				<path id="Vector" d="M145.63 82.34C145.63 82.34 136.63 90.91 133.58 104.67L124.91 146.46C124.91 146.46 130.85 148.52 139.04 144.56C143.54 142.66 152.85 143.45 152.85 143.45C152.85 143.45 151.89 132.05 154.14 128.1" stroke="#00455D" stroke-opacity="1.000000" stroke-width="1.705000" stroke-linejoin="round" stroke-linecap="round"/>
				<path id="Vector" d="M145.39 119.72L161.14 112.75C161.14 112.75 163.03 91.98 144.06 83.35M140.03 104.56L147.08 118.71M161.07 115.68C161.07 115.68 169.01 136.81 172.55 141.14C176.08 145.46 177.31 152.41 175.47 154.73C173.62 157.05 171.93 159.3 169.32 157.4C166.71 155.5 168.24 154.83 167.01 153.78C165.78 152.72 169.78 147.22 169.78 147.22C169.78 147.22 154.26 136.04 150.11 119.59" stroke="#00455D" stroke-opacity="1.000000" stroke-width="1.705000" stroke-linejoin="round" stroke-linecap="round"/>
				<path id="Vector" d="M169.26 150.53C169.26 152.49 167.68 154.07 165.73 154.07C163.78 154.07 162.2 152.49 162.2 150.53C162.2 148.58 163.78 147 165.73 147C167.68 147 169.26 148.58 169.26 150.53Z" fill="#FFFFFF" fill-opacity="1.000000" fill-rule="nonzero"/>
				<path id="Vector" d="M165.73 154.07C163.78 154.07 162.2 152.49 162.2 150.53C162.2 148.58 163.78 147 165.73 147C167.68 147 169.26 148.58 169.26 150.53C169.26 152.49 167.68 154.07 165.73 154.07Z" stroke="#00455D" stroke-opacity="1.000000" stroke-width="1.705000" stroke-linejoin="bevel"/>
				<path id="Vector" d="M156.02 93.45C156.02 93.45 152.73 83.35 158.91 82.09C165.09 80.83 169.12 83.37 169.26 72.23M128.94 72.23C128.94 72.23 143.69 69.98 154.35 66.67C165.01 63.35 166.24 62.67 166.24 62.67C166.24 62.67 163.82 54.06 153.35 55.15C142.87 56.25 143.8 67.86 143.8 67.86" stroke="#00455D" stroke-opacity="1.000000" stroke-width="1.705000" stroke-linejoin="bevel" stroke-linecap="round"/>
				<path id="Vector" d="M142.21 70.21C142.21 70.21 140.92 76.08 145.5 77.11C145.5 77.11 143.11 80.99 148.09 80.21M154.14 69.2C154.14 69.2 149.6 72.98 154.14 76.28" stroke="#00455D" stroke-opacity="1.000000" stroke-width="1.705000" stroke-linejoin="round" stroke-linecap="round"/>
				<path id="Vector" d="M159.18 67.99C159.18 67.99 159.04 71.57 162.4 71.2C165.75 70.83 165.75 67.99 165.75 67.99C165.75 67.99 167.99 70.33 170.09 68.98C172.18 67.63 171.07 65.53 170.09 65.16" stroke="#00455D" stroke-opacity="1.000000" stroke-width="1.868000" stroke-linejoin="round" stroke-linecap="round"/>
				<path id="Vector" d="M126.93 147.27C126.93 147.27 126.51 154.13 132.06 157.05C137.6 159.97 161.16 173.38 161.16 173.38L182.51 203.58L193.46 194.54C193.46 194.54 181.26 163.63 150.99 142.96M175.31 157.1L194.46 172.26" stroke="#00455D" stroke-opacity="1.000000" stroke-width="1.705000" stroke-linejoin="round" stroke-linecap="round"/>
				<path id="Vector" d="M186.4 200.32L189.91 205.12C189.91 205.12 188.75 207.85 189.13 208.77C189.52 209.68 193.78 216.31 194.61 215.66C195.44 215.01 214.99 195.63 215.58 193.94C216.16 192.25 212.1 189.58 209.18 190.72L195.7 196.02L194.61 193.6L186.4 200.32Z" fill="#0098AB" fill-opacity="1.000000" fill-rule="nonzero"/>
				<path id="Vector" d="M186.4 200.32L189.91 205.12C189.91 205.12 188.75 207.85 189.13 208.77C189.52 209.68 193.78 216.31 194.61 215.66C195.44 215.01 214.99 195.63 215.58 193.94C216.16 192.25 212.1 189.58 209.18 190.72L195.7 196.02L194.61 193.6" stroke="#353E48" stroke-opacity="1.000000" stroke-width="1.705000" stroke-linejoin="round" stroke-linecap="round"/>
				<path id="Vector" d="M195.04 196.5C195.04 196.5 197.79 204.3 189.42 205.6" stroke="#353E48" stroke-opacity="1.000000" stroke-width="1.705000" stroke-linejoin="round" stroke-linecap="round"/>
				<path id="Vector" d="M144.66 148.01L142.04 154.06L153.58 161.18C156.03 162.55 159.85 162.63 161.2 160.39" stroke="#00455D" stroke-opacity="1.000000" stroke-width="1.705000" stroke-linejoin="round" stroke-linecap="round"/>
				<path id="Vector" d="M147.08 149.02L145.07 155.08" stroke="#00455D" stroke-opacity="1.000000" stroke-width="1.705000" stroke-linejoin="round" stroke-linecap="round"/>
				<path id="Vector" d="M94.1 91.43C94.1 91.43 85.8 96.98 79.96 141.97C79.02 148.28 79.02 157.28 87.03 161.68L114.65 176.81L131.61 200.55C131.61 200.55 139.34 195.76 141.03 191.55C141.03 191.55 122.75 163.02 103.34 146.94" stroke="#00455D" stroke-opacity="1.000000" stroke-width="1.868000" stroke-linejoin="bevel" stroke-linecap="round"/>
				<path id="Vector" d="M92.69 98.5C92.69 98.5 115.16 106.65 105.24 126.16C105.24 126.16 100.61 131.74 100.23 143.43C100.23 143.43 91.38 142.5 89.68 145.61C87.99 148.73 84.91 151.69 81.67 150.91C78.44 150.13 76.43 149.2 75.51 150.13" stroke="#00455D" stroke-opacity="1.000000" stroke-width="1.705000" stroke-linejoin="bevel" stroke-linecap="round"/>
				<path id="Vector" d="M88.65 101.53C88.65 101.53 87.37 121.93 99.28 133.93C111.19 145.92 116.4 151.92 116.4 151.92L114.35 153.47L119.75 158.11C119.75 158.11 122.91 152.5 118.63 147.08C114.35 141.67 100.26 122.13 100.26 122.13L100.26 106.84" stroke="#00455D" stroke-opacity="1.000000" stroke-width="1.705000" stroke-linejoin="round" stroke-linecap="round"/>
				<path id="Vector" d="M89.62 74.7C89.62 74.7 92.36 65.86 101.06 66.18C109.76 66.5 113.02 75.02 113.02 76.79C113.02 78.56 113.95 79.85 113.8 82.9C113.64 85.95 112.78 96.08 105.99 94.96C99.19 93.83 103.99 105.57 103.99 105.57M86.6 78.3C86.6 78.3 86.76 86.44 95.67 89.41M111.8 76.29C111.8 76.29 105.54 75.66 102.73 82.34" stroke="#00455D" stroke-opacity="1.000000" stroke-width="1.868000" stroke-linejoin="bevel" stroke-linecap="round"/>
				<path id="Vector" d="M116.84 150.53C116.84 152.49 115.26 154.07 113.31 154.07C111.36 154.07 109.78 152.49 109.78 150.53C109.78 148.58 111.36 147 113.31 147C115.26 147 116.84 148.58 116.84 150.53Z" fill="#FFFFFF" fill-opacity="1.000000" fill-rule="nonzero"/>
				<path id="Vector" d="M113.31 154.07C111.36 154.07 109.78 152.49 109.78 150.53C109.78 148.58 111.36 147 113.31 147C115.26 147 116.84 148.58 116.84 150.53C116.84 152.49 115.26 154.07 113.31 154.07Z" stroke="#00455D" stroke-opacity="1.000000" stroke-width="1.705000" stroke-linejoin="bevel"/>
				<path id="Vector" d="" fill="#FFFFFF" fill-opacity="1.000000" fill-rule="nonzero"/>
				<path id="Vector" d="M120.87 155.08L141.03 171.25" stroke="#00455D" stroke-opacity="1.000000" stroke-width="1.705000" stroke-linejoin="bevel" stroke-linecap="round"/>
				<path id="Vector" d="M137 197.87L140.67 205.33C140.67 205.33 139.41 208.43 141.32 210.18C142.5 211.27 143.61 212.44 144.64 213.68L148.9 209.1C148.9 209.1 149.05 206.22 149.75 205.77C150.46 205.33 158.46 201.69 161.2 195.36C161.2 195.36 159.82 189.43 151.03 194.55C147.34 196.3 145.78 197.24 145.78 197.24C145.78 197.24 143.79 203.44 142.23 204.38L137 197.87Z" fill="#0098AB" fill-opacity="1.000000" fill-rule="nonzero"/>
				<path id="Vector" d="M137 197.87L140.67 205.33C140.67 205.33 139.41 208.43 141.32 210.18C142.5 211.27 143.61 212.44 144.64 213.68L148.9 209.1C148.9 209.1 149.05 206.22 149.75 205.77C150.46 205.33 158.46 201.69 161.2 195.36C161.2 195.36 159.82 189.43 151.03 194.55C147.34 196.3 145.78 197.24 145.78 197.24C145.78 197.24 143.79 203.44 142.23 204.38" stroke="#353E48" stroke-opacity="1.000000" stroke-width="1.705000" stroke-linejoin="round" stroke-linecap="round"/>
				<path id="Vector" d="M303.29 200.55C303.29 200.55 304.18 206.27 298.3 206.61" stroke="#353E48" stroke-opacity="1.000000" stroke-width="1.705000" stroke-linejoin="round" stroke-linecap="round"/>
				<path id="Vector" d="M236.8 150.03C236.8 150.03 240.36 117.39 243.44 111.65C246.52 105.9 253.18 94.77 249.38 89.46C245.57 84.15 242.14 79.22 243.66 77.83C245.18 76.45 259.85 72.03 260.99 73.57C262.14 75.11 268.04 87.56 268.04 89.22C268.04 90.89 268.61 96.19 261.38 97.96C258.52 99.36 259.09 105.51 259.09 105.51M247.89 104.56C247.89 104.56 260.79 106.08 273.89 118.55C286.98 131.02 301.62 142.73 302.39 145.05C303.16 147.38 305.28 156.28 298.73 153.56C295.65 151.82 296.42 146.85 296.42 146.85L249.43 116.2" stroke="#00455D" stroke-opacity="1.000000" stroke-width="1.868000" stroke-linejoin="round" stroke-linecap="round"/>
				<path id="Vector" d="M263.01 124.77L257.97 143.97M249.55 146.46C249.55 146.46 258.24 145.4 258.05 146.46C257.86 147.52 260.91 152.92 263.54 153.67C266.16 154.42 273.12 158.44 271.96 160.16C270.8 161.88 260.18 175.29 260.18 175.29C260.18 175.29 238.54 159.94 236.8 155.74M232.77 155.08L254.95 150.03M256.97 83.35L264.02 81.33M259.98 86.38C259.98 86.38 256.81 87.1 256.97 89.29C257.13 91.47 259.49 92.44 261 92.44" stroke="#00455D" stroke-opacity="1.000000" stroke-width="1.868000" stroke-linejoin="round" stroke-linecap="round"/>
				<path id="Vector" d="M213.62 178.78L219.68 182.51C219.68 182.51 223.26 187.55 227.73 191.03C232.2 194.52 240.44 200.55 240.44 200.55L243.86 194.41L222.41 168.22L213.62 178.78ZM264.02 171.39L277.35 179.73L296.68 208.63C296.68 208.63 304.98 207.11 302.93 201.67C300.78 195.95 286.5 171.39 286.5 171.39L271.65 162.15L264.02 171.39Z" fill="#97CAD1" fill-opacity="1.000000" fill-rule="evenodd"/>
				<path id="Vector" d="M290.54 210.32C290.54 210.32 294.15 208.01 296.25 210.32C298.34 212.63 299.86 217.84 301.57 216.49C303.29 215.14 319.47 196.43 319.47 196.43C319.47 196.43 317.37 193.75 313.57 194.22C309.76 194.7 302.51 199.92 302.51 199.92L287.87 172.12C285.78 167.85 275.11 161.14 275.11 161.14M263.01 172.26L277.6 180.06L297.29 208.63M214.95 179.84C214.95 179.84 218.77 182.83 220.45 183.48C220.45 183.48 222.74 189.84 226.12 191.53C228.86 193.3 240.37 202.57 240.37 202.57L243.86 195.94C243.86 195.94 216.18 156.21 209.58 152.05M184.05 144.98C184.05 144.98 181.69 155.06 185.8 159.64C189.91 164.21 212.66 180.34 212.66 180.34L222.69 168.27" stroke="#00455D" stroke-opacity="1.000000" stroke-width="1.868000" stroke-linejoin="round" stroke-linecap="round"/>
			</g>
		</g>
	</g>
</svg>
