<svg width="12.542969" height="7.049805" viewBox="0 0 12.543 7.0498" fill="none" xmlns="http://www.w3.org/2000/svg" xmlns:xlink="http://www.w3.org/1999/xlink">
	<desc>
			Created with Pixso.
	</desc>
	<defs/>
	<path id="Vector" d="M0.71 0.71C0.88 0.54 1.16 0.54 1.33 0.71L6.16 5.54C6.22 5.6 6.31 5.6 6.37 5.54L11.21 0.71C11.38 0.54 11.66 0.54 11.83 0.71C12 0.88 12 1.15 11.83 1.33L6.99 6.16C6.59 6.56 5.94 6.56 5.54 6.16L0.71 1.33C0.54 1.15 0.54 0.88 0.71 0.71Z" fill="#212121" fill-opacity="1.000000" fill-rule="evenodd"/>
	<path id="Vector" d="M1.33 0.71L6.16 5.54C6.22 5.6 6.31 5.6 6.37 5.54L11.21 0.71C11.38 0.54 11.66 0.54 11.83 0.71C12 0.88 12 1.15 11.83 1.33L6.99 6.16C6.59 6.56 5.94 6.56 5.54 6.16L0.71 1.33C0.54 1.15 0.54 0.88 0.71 0.71C0.88 0.54 1.16 0.54 1.33 0.71Z" stroke="#212121" stroke-opacity="1.000000" stroke-width="1.166667"/>
</svg>
