<svg width="18.000000" height="18.000000" viewBox="0 0 18 18" fill="none" xmlns="http://www.w3.org/2000/svg" xmlns:xlink="http://www.w3.org/1999/xlink">
	<desc>
			Created with Pixso.
	</desc>
	<defs/>
	<mask id="mask2_5957" mask-type="alpha" maskUnits="userSpaceOnUse" x="0.000000" y="0.000000" width="18.000000" height="18.000000">
		<path id="Vector" d="M18 18L0 18L0 0L18 0L18 18Z" fill="#000000" fill-opacity="1.000000" fill-rule="evenodd"/>
	</mask>
	<g mask="url(#mask2_5957)">
		<path id="Vector" d="M0 17.25C0 17.44 0.07 17.63 0.21 17.78C0.35 17.92 0.55 18 0.75 18L5.62 18C5.77 18 5.91 17.95 6.04 17.87C6.16 17.79 6.26 17.67 6.31 17.53C6.37 17.4 6.38 17.25 6.36 17.1C6.33 16.95 6.25 16.82 6.15 16.71L4.51 15.07C4.49 15.05 4.48 15.03 4.47 15.01C4.46 14.99 4.45 14.96 4.45 14.94C4.45 14.91 4.46 14.89 4.47 14.87C4.48 14.84 4.49 14.82 4.51 14.8L7.78 11.53C7.96 11.36 8.06 11.12 8.06 10.87C8.06 10.62 7.96 10.38 7.78 10.21C7.61 10.03 7.37 9.93 7.12 9.93C6.87 9.93 6.63 10.03 6.46 10.21L3.18 13.48C3.16 13.5 3.14 13.51 3.12 13.52C3.1 13.53 3.08 13.54 3.05 13.54C3.02 13.54 3 13.53 2.98 13.52C2.96 13.51 2.93 13.5 2.92 13.48L1.27 11.84C1.21 11.77 1.12 11.72 1.03 11.68C0.94 11.64 0.84 11.62 0.75 11.62C0.65 11.62 0.55 11.64 0.46 11.68C0.32 11.73 0.2 11.83 0.12 11.95C0.04 12.08 0 12.22 0 12.37L0 17.25Z" fill="#00798A" fill-opacity="1.000000" fill-rule="nonzero"/>
		<path id="Vector" d="M17.25 0L12.37 0C12.22 0 12.08 0.04 11.95 0.12C11.83 0.2 11.73 0.32 11.68 0.46C11.62 0.59 11.61 0.75 11.64 0.89C11.66 1.04 11.74 1.17 11.84 1.28L13.48 2.92C13.5 2.94 13.51 2.96 13.52 2.98C13.53 3 13.54 3.03 13.54 3.05C13.54 3.08 13.53 3.1 13.52 3.12C13.51 3.15 13.5 3.17 13.48 3.18L10.21 6.46C10.12 6.55 10.05 6.65 10 6.76C9.96 6.88 9.93 7 9.93 7.12C9.93 7.25 9.96 7.37 10 7.48C10.05 7.59 10.12 7.7 10.21 7.79C10.29 7.87 10.4 7.94 10.51 7.99C10.63 8.04 10.75 8.06 10.87 8.06C10.99 8.06 11.12 8.04 11.23 7.99C11.34 7.94 11.45 7.87 11.53 7.79L14.81 4.51C14.83 4.49 14.85 4.48 14.87 4.47C14.89 4.46 14.91 4.45 14.94 4.45C14.97 4.45 14.99 4.46 15.01 4.47C15.03 4.48 15.06 4.49 15.07 4.51L16.72 6.15C16.82 6.26 16.95 6.33 17.1 6.36C17.25 6.38 17.4 6.37 17.53 6.31C17.67 6.26 17.79 6.16 17.87 6.04C17.95 5.91 18 5.77 18 5.62L18 0.75C18 0.55 17.92 0.36 17.78 0.21C17.64 0.07 17.44 0 17.25 0Z" fill="#00798A" fill-opacity="1.000000" fill-rule="nonzero"/>
	</g>
</svg>
