<svg width="20.000000" height="20.000000" viewBox="0 0 20 20" fill="none" xmlns="http://www.w3.org/2000/svg" xmlns:xlink="http://www.w3.org/1999/xlink">
	<desc>
			Created with Pixso.
	</desc>
	<defs>
		<clipPath id="clip2_2072">
			<rect id="SVG" rx="0.000000" width="19.000000" height="19.000000" transform="translate(0.500000 0.500000)" fill="white" fill-opacity="0"/>
		</clipPath>
	</defs>
	<g clip-path="url(#clip2_2072)">
		<path id="Vector" d="M10 17.08C13.91 17.08 17.08 13.91 17.08 10C17.08 6.08 13.91 2.91 10 2.91C6.08 2.91 2.91 6.08 2.91 10C2.91 13.91 6.08 17.08 10 17.08ZM10 18.33C14.6 18.33 18.33 14.6 18.33 10C18.33 5.39 14.6 1.66 10 1.66C5.39 1.66 1.66 5.39 1.66 10C1.66 14.6 5.39 18.33 10 18.33Z" fill="#707070" fill-opacity="1.000000" fill-rule="evenodd"/>
		<path id="Vector" d="M15.44 7.05C15.68 7.3 15.68 7.69 15.44 7.94L9.65 13.72C8.92 14.45 7.73 14.45 7 13.72L4.55 11.27C4.31 11.03 4.31 10.63 4.55 10.39C4.8 10.14 5.19 10.14 5.44 10.39L7.89 12.84C8.13 13.08 8.53 13.08 8.77 12.84L14.55 7.05C14.8 6.81 15.19 6.81 15.44 7.05Z" fill="#707070" fill-opacity="1.000000" fill-rule="evenodd"/>
	</g>
</svg>
