<svg width="16.666992" height="16.666992" viewBox="0 0 16.667 16.667" fill="none" xmlns="http://www.w3.org/2000/svg" xmlns:xlink="http://www.w3.org/1999/xlink">
	<desc>
			Created with Pixso.
	</desc>
	<defs/>
	<path id="Vector" d="M8.33 15.41C9.1 15.41 10.01 14.89 10.79 13.58C11.02 13.2 11.23 12.76 11.41 12.29L5.25 12.29C5.43 12.76 5.64 13.2 5.87 13.58C6.65 14.89 7.56 15.41 8.33 15.41ZM4.88 11.04C4.69 10.21 4.58 9.3 4.58 8.33C4.58 7.36 4.69 6.45 4.88 5.62L11.78 5.62C11.97 6.45 12.08 7.36 12.08 8.33C12.08 9.3 11.97 10.21 11.78 11.04L4.88 11.04ZM12.73 12.29C12.44 13.17 12.07 13.95 11.62 14.6C12.66 14.06 13.55 13.26 14.2 12.29L12.73 12.29ZM14.88 11.04L13.06 11.04C13.23 10.19 13.33 9.28 13.33 8.33C13.33 7.38 13.23 6.47 13.06 5.62L14.88 5.62C15.22 6.45 15.41 7.37 15.41 8.33C15.41 9.29 15.22 10.2 14.88 11.04ZM3.6 11.04L1.78 11.04C1.44 10.2 1.25 9.29 1.25 8.33C1.25 7.37 1.44 6.45 1.78 5.62L3.6 5.62C3.42 6.47 3.33 7.38 3.33 8.33C3.33 9.28 3.42 10.19 3.6 11.04ZM2.45 12.29L3.93 12.29C4.21 13.17 4.59 13.95 5.04 14.6C4 14.06 3.11 13.26 2.45 12.29ZM5.25 4.37L11.41 4.37C11.23 3.89 11.02 3.46 10.79 3.08C10.01 1.77 9.1 1.25 8.33 1.25C7.56 1.25 6.65 1.77 5.87 3.08C5.64 3.46 5.43 3.89 5.25 4.37ZM12.73 4.37L14.2 4.37C13.55 3.4 12.66 2.6 11.62 2.05C12.07 2.71 12.44 3.49 12.73 4.37ZM5.04 2.05C4.59 2.71 4.21 3.49 3.93 4.37L2.45 4.37C3.11 3.4 4 2.6 5.04 2.05ZM8.33 0C12.93 0 16.66 3.73 16.66 8.33C16.66 12.93 12.93 16.66 8.33 16.66C3.73 16.66 0 12.93 0 8.33C0 3.73 3.73 0 8.33 0Z" fill="#212121" fill-opacity="1.000000" fill-rule="evenodd"/>
</svg>
