<svg width="16.270508" height="16.270508" viewBox="0 0 16.2705 16.2705" fill="none" xmlns="http://www.w3.org/2000/svg" xmlns:xlink="http://www.w3.org/1999/xlink">
	<desc>
			Created with Pixso.
	</desc>
	<defs/>
	<path id="Vector" d="M12.37 6.87C12.37 9.91 9.91 12.37 6.87 12.37C3.83 12.37 1.37 9.91 1.37 6.87C1.37 3.83 3.83 1.37 6.87 1.37C9.91 1.37 12.37 3.83 12.37 6.87ZM13.75 6.87C13.75 10.67 10.67 13.75 6.87 13.75C3.07 13.75 0 10.67 0 6.87C0 3.07 3.07 0 6.87 0C10.67 0 13.75 3.07 13.75 6.87ZM12.34 13.31L11.87 12.84C12.22 12.55 12.55 12.22 12.84 11.87L13.31 12.34L16.06 15.09C16.33 15.36 16.33 15.8 16.06 16.06C15.8 16.33 15.36 16.33 15.09 16.06L12.34 13.31Z" fill="#707070" fill-opacity="1.000000" fill-rule="evenodd"/>
</svg>
