<svg width="14.791016" height="14.791016" viewBox="0 0 14.791 14.791" fill="none" xmlns="http://www.w3.org/2000/svg" xmlns:xlink="http://www.w3.org/1999/xlink">
	<desc>
			Created with Pixso.
	</desc>
	<defs/>
	<path id="Vector" d="M11.25 6.25C11.25 9.01 9.01 11.25 6.25 11.25C3.48 11.25 1.25 9.01 1.25 6.25C1.25 3.48 3.48 1.25 6.25 1.25C9.01 1.25 11.25 3.48 11.25 6.25ZM12.5 6.25C12.5 9.7 9.7 12.5 6.25 12.5C2.79 12.5 0 9.7 0 6.25C0 2.79 2.79 0 6.25 0C9.7 0 12.5 2.79 12.5 6.25ZM11.22 12.1L10.79 11.68C11.11 11.41 11.41 11.11 11.68 10.79L12.1 11.22L14.6 13.72C14.85 13.96 14.85 14.36 14.6 14.6C14.36 14.85 13.96 14.85 13.72 14.6L11.22 12.1Z" fill="#FFFFFF" fill-opacity="1.000000" fill-rule="evenodd"/>
</svg>
