<svg width="14.666992" height="16.657227" viewBox="0 0 14.667 16.6572" fill="none" xmlns="http://www.w3.org/2000/svg" xmlns:xlink="http://www.w3.org/1999/xlink">
	<desc>
			Created with Pixso.
	</desc>
	<defs/>
	<path id="Vector" d="M9.83 0.53C10.54 -0.18 11.71 -0.18 12.42 0.53L13.72 1.83C14.43 2.54 14.43 3.7 13.72 4.42L12.42 5.72L8.53 1.83L9.83 0.53ZM7.88 2.48L11.77 6.37L4.26 13.87C4.09 14.05 3.86 14.14 3.62 14.14L0.56 14.14C0.31 14.14 0.11 13.94 0.11 13.69L0.11 10.63C0.11 10.39 0.2 10.16 0.37 9.99L7.88 2.48ZM0.68 15.28C0.3 15.28 0 15.58 0 15.96C0 16.34 0.3 16.65 0.68 16.65L13.97 16.65C14.35 16.65 14.66 16.34 14.66 15.96C14.66 15.58 14.35 15.28 13.97 15.28L0.68 15.28Z" fill="#00798A" fill-opacity="1.000000" fill-rule="evenodd"/>
</svg>
