<svg width="20.000000" height="20.000000" viewBox="0 0 20 20" fill="none" xmlns="http://www.w3.org/2000/svg" xmlns:xlink="http://www.w3.org/1999/xlink">
	<desc>
			Created with Pixso.
	</desc>
	<defs>
		<clipPath id="clip2_2076">
			<rect id="SVG" rx="0.000000" width="19.000000" height="19.000000" transform="translate(0.500000 0.500000)" fill="white" fill-opacity="0"/>
		</clipPath>
	</defs>
	<g clip-path="url(#clip2_2076)">
		<path id="Vector" d="M13.33 5C13.94 5 14.48 4.66 14.77 4.16L16.66 4.16C17.12 4.16 17.49 4.53 17.49 5L17.49 6.77C16.06 7.14 14.99 8.44 14.99 10C14.99 11.55 16.06 12.85 17.49 13.22L17.49 15C17.49 15.46 17.12 15.83 16.66 15.83L14.77 15.83C14.48 15.33 13.94 15 13.33 15C12.71 15 12.17 15.33 11.88 15.83L3.33 15.83C2.87 15.83 2.49 15.46 2.49 15L2.49 13.22C3.93 12.85 4.99 11.55 4.99 10C4.99 8.44 3.93 7.14 2.49 6.77L2.49 5C2.49 4.53 2.87 4.16 3.33 4.16L11.88 4.16C12.17 4.66 12.71 5 13.33 5ZM15.83 10C15.83 8.61 16.95 7.5 18.33 7.5L18.33 5C18.33 4.07 17.58 3.33 16.66 3.33L14.16 3.33C14.16 3.79 13.79 4.16 13.33 4.16C12.87 4.16 12.49 3.79 12.49 3.33L3.33 3.33C2.41 3.33 1.66 4.07 1.66 5L1.66 7.5C3.04 7.5 4.16 8.61 4.16 10C4.16 11.38 3.04 12.5 1.66 12.5L1.66 15C1.66 15.91 2.41 16.66 3.33 16.66L12.49 16.66C12.49 16.2 12.87 15.83 13.33 15.83C13.79 15.83 14.16 16.2 14.16 16.66L16.66 16.66C17.58 16.66 18.33 15.91 18.33 15L18.33 12.5C16.95 12.5 15.83 11.38 15.83 10ZM13.33 7.5C13.79 7.5 14.16 7.12 14.16 6.66C14.16 6.2 13.79 5.83 13.33 5.83C12.87 5.83 12.49 6.2 12.49 6.66C12.49 7.12 12.87 7.5 13.33 7.5ZM13.33 10.83C13.79 10.83 14.16 10.46 14.16 10C14.16 9.53 13.79 9.16 13.33 9.16C12.87 9.16 12.49 9.53 12.49 10C12.49 10.46 12.87 10.83 13.33 10.83ZM14.16 13.33C14.16 13.79 13.79 14.16 13.33 14.16C12.87 14.16 12.49 13.79 12.49 13.33C12.49 12.87 12.87 12.5 13.33 12.5C13.79 12.5 14.16 12.87 14.16 13.33Z" fill="#707070" fill-opacity="1.000000" fill-rule="evenodd"/>
	</g>
</svg>
